<svg width="21" height="24" viewBox="0 0 21 24" fill="none" xmlns="http://www.w3.org/2000/svg">
<path d="M1.75 23.3333C1.28333 23.3333 0.875 23.1583 0.525 22.8083C0.175 22.4583 0 22.05 0 21.5833V3.5C0 3.03333 0.175 2.625 0.525 2.275C0.875 1.925 1.28333 1.75 1.75 1.75H3.64583V0H5.54167V1.75H15.4583V0H17.3542V1.75H19.25C19.7167 1.75 20.125 1.925 20.475 2.275C20.825 2.625 21 3.03333 21 3.5V21.5833C21 22.05 20.825 22.4583 20.475 22.8083C20.125 23.1583 19.7167 23.3333 19.25 23.3333H1.75ZM1.75 21.5833H19.25V9.04167H1.75V21.5833ZM1.75 7.29167H19.25V3.5H1.75V7.29167ZM10.5 14C10.1694 14 9.89236 13.8882 9.66875 13.6646C9.44514 13.441 9.33333 13.1639 9.33333 12.8333C9.33333 12.5028 9.44514 12.2257 9.66875 12.0021C9.89236 11.7785 10.1694 11.6667 10.5 11.6667C10.8306 11.6667 11.1076 11.7785 11.3313 12.0021C11.5549 12.2257 11.6667 12.5028 11.6667 12.8333C11.6667 13.1639 11.5549 13.441 11.3313 13.6646C11.1076 13.8882 10.8306 14 10.5 14ZM5.83333 14C5.50278 14 5.22569 13.8882 5.00208 13.6646C4.77847 13.441 4.66667 13.1639 4.66667 12.8333C4.66667 12.5028 4.77847 12.2257 5.00208 12.0021C5.22569 11.7785 5.50278 11.6667 5.83333 11.6667C6.16389 11.6667 6.44097 11.7785 6.66458 12.0021C6.88819 12.2257 7 12.5028 7 12.8333C7 13.1639 6.88819 13.441 6.66458 13.6646C6.44097 13.8882 6.16389 14 5.83333 14ZM15.1667 14C14.8361 14 14.559 13.8882 14.3354 13.6646C14.1118 13.441 14 13.1639 14 12.8333C14 12.5028 14.1118 12.2257 14.3354 12.0021C14.559 11.7785 14.8361 11.6667 15.1667 11.6667C15.4972 11.6667 15.7743 11.7785 15.9979 12.0021C16.2215 12.2257 16.3333 12.5028 16.3333 12.8333C16.3333 13.1639 16.2215 13.441 15.9979 13.6646C15.7743 13.8882 15.4972 14 15.1667 14ZM10.5 18.6667C10.1694 18.6667 9.89236 18.5549 9.66875 18.3312C9.44514 18.1076 9.33333 17.8306 9.33333 17.5C9.33333 17.1694 9.44514 16.8924 9.66875 16.6688C9.89236 16.4451 10.1694 16.3333 10.5 16.3333C10.8306 16.3333 11.1076 16.4451 11.3313 16.6688C11.5549 16.8924 11.6667 17.1694 11.6667 17.5C11.6667 17.8306 11.5549 18.1076 11.3313 18.3312C11.1076 18.5549 10.8306 18.6667 10.5 18.6667ZM5.83333 18.6667C5.50278 18.6667 5.22569 18.5549 5.00208 18.3312C4.77847 18.1076 4.66667 17.8306 4.66667 17.5C4.66667 17.1694 4.77847 16.8924 5.00208 16.6688C5.22569 16.4451 5.50278 16.3333 5.83333 16.3333C6.16389 16.3333 6.44097 16.4451 6.66458 16.6688C6.88819 16.8924 7 17.1694 7 17.5C7 17.8306 6.88819 18.1076 6.66458 18.3312C6.44097 18.5549 6.16389 18.6667 5.83333 18.6667ZM15.1667 18.6667C14.8361 18.6667 14.559 18.5549 14.3354 18.3312C14.1118 18.1076 14 17.8306 14 17.5C14 17.1694 14.1118 16.8924 14.3354 16.6688C14.559 16.4451 14.8361 16.3333 15.1667 16.3333C15.4972 16.3333 15.7743 16.4451 15.9979 16.6688C16.2215 16.8924 16.3333 17.1694 16.3333 17.5C16.3333 17.8306 16.2215 18.1076 15.9979 18.3312C15.7743 18.5549 15.4972 18.6667 15.1667 18.6667Z" fill="#8F91C7"/>
</svg>
