<svg width="21" height="24" viewBox="0 0 21 24" fill="none" xmlns="http://www.w3.org/2000/svg">
<path d="M1.75 23.3333C1.26875 23.3333 0.856771 23.162 0.514063 22.8193C0.171354 22.4766 0 22.0646 0 21.5833V4.08333C0 3.60208 0.171354 3.1901 0.514063 2.8474C0.856771 2.50469 1.26875 2.33333 1.75 2.33333H7.72917C7.82639 1.65278 8.1375 1.09375 8.6625 0.65625C9.1875 0.21875 9.8 0 10.5 0C11.2 0 11.8125 0.21875 12.3375 0.65625C12.8625 1.09375 13.1736 1.65278 13.2708 2.33333H19.25C19.7313 2.33333 20.1432 2.50469 20.4859 2.8474C20.8286 3.1901 21 3.60208 21 4.08333V21.5833C21 22.0646 20.8286 22.4766 20.4859 22.8193C20.1432 23.162 19.7313 23.3333 19.25 23.3333H1.75ZM1.75 21.5833H19.25V4.08333H1.75V21.5833ZM4.66667 18.6667H12.6292V16.9167H4.66667V18.6667ZM4.66667 13.7083H16.3333V11.9583H4.66667V13.7083ZM4.66667 8.75H16.3333V7H4.66667V8.75ZM10.5 3.5875C10.7722 3.5875 11.0104 3.48542 11.2146 3.28125C11.4187 3.07708 11.5208 2.83889 11.5208 2.56667C11.5208 2.29444 11.4187 2.05625 11.2146 1.85208C11.0104 1.64792 10.7722 1.54583 10.5 1.54583C10.2278 1.54583 9.98958 1.64792 9.78542 1.85208C9.58125 2.05625 9.47917 2.29444 9.47917 2.56667C9.47917 2.83889 9.58125 3.07708 9.78542 3.28125C9.98958 3.48542 10.2278 3.5875 10.5 3.5875Z" fill="#8F91C7"/>
</svg>
