<svg width="21" height="21" viewBox="0 0 21 21" fill="none" xmlns="http://www.w3.org/2000/svg">
<path d="M1.75 21C1.26875 21 0.856771 20.8286 0.514063 20.4859C0.171354 20.1432 0 19.7313 0 19.25V7C0 5.05556 0.680556 3.40278 2.04167 2.04167C3.40278 0.680556 5.05556 0 7 0H14C15.9444 0 17.5972 0.680556 18.9583 2.04167C20.3194 3.40278 21 5.05556 21 7V19.25C21 19.7313 20.8286 20.1432 20.4859 20.4859C20.1432 20.8286 19.7313 21 19.25 21H1.75ZM1.75 19.25H19.25V7C19.25 5.54167 18.7396 4.30208 17.7188 3.28125C16.6979 2.26042 15.4583 1.75 14 1.75H7C5.54167 1.75 4.30208 2.26042 3.28125 3.28125C2.26042 4.30208 1.75 5.54167 1.75 7V19.25ZM6.9974 10.2083C6.43525 10.2083 5.95486 10.0082 5.55625 9.60782C5.15764 9.2075 4.95833 8.72625 4.95833 8.16407C4.95833 7.60191 5.1585 7.12153 5.55885 6.72292C5.95917 6.32431 6.44042 6.125 7.0026 6.125C7.56475 6.125 8.04514 6.32517 8.44375 6.72551C8.84236 7.12583 9.04167 7.60708 9.04167 8.16926C9.04167 8.73142 8.8415 9.21181 8.44115 9.61042C8.04083 10.009 7.55958 10.2083 6.9974 10.2083ZM13.9974 10.2083C13.4352 10.2083 12.9549 10.0082 12.5562 9.60782C12.1576 9.2075 11.9583 8.72625 11.9583 8.16407C11.9583 7.60191 12.1585 7.12153 12.5588 6.72292C12.9592 6.32431 13.4404 6.125 14.0026 6.125C14.5648 6.125 15.0451 6.32517 15.4438 6.72551C15.8424 7.12583 16.0417 7.60708 16.0417 8.16926C16.0417 8.73142 15.8415 9.21181 15.4412 9.61042C15.0408 10.009 14.5596 10.2083 13.9974 10.2083ZM4.95833 19.25V16.0417C4.95833 15.5604 5.12969 15.1484 5.4724 14.8057C5.8151 14.463 6.22708 14.2917 6.70833 14.2917H14.2917C14.7729 14.2917 15.1849 14.463 15.5276 14.8057C15.8703 15.1484 16.0417 15.5604 16.0417 16.0417V19.25H14.2917V16.0417H11.375V19.25H9.625V16.0417H6.70833V19.25H4.95833Z" fill="#8F91C7"/>
</svg>
