<svg width="29" height="29" viewBox="0 0 29 29" fill="none" xmlns="http://www.w3.org/2000/svg">
<path d="M14.5 25.5C8.43625 25.5 3.5 20.5637 3.5 14.5C3.5 8.43625 8.43625 3.5 14.5 3.5C20.5637 3.5 25.5 8.43625 25.5 14.5C25.5 20.5637 20.5637 25.5 14.5 25.5ZM14.5 0.75C6.89625 0.75 0.75 6.89625 0.75 14.5C0.75 22.1038 6.89625 28.25 14.5 28.25C22.1038 28.25 28.25 22.1038 28.25 14.5C28.25 6.89625 22.1038 0.75 14.5 0.75ZM18.0613 9L14.5 12.5613L10.9387 9L9 10.9387L12.5613 14.5L9 18.0613L10.9387 20L14.5 16.4387L18.0613 20L20 18.0613L16.4387 14.5L20 10.9387L18.0613 9Z" fill="black"/>
</svg>
