<svg width="23" height="24" viewBox="0 0 23 24" fill="none" xmlns="http://www.w3.org/2000/svg">
<path d="M19.9109 12.7358C19.9593 12.3733 19.9834 11.9988 19.9834 11.6C19.9834 11.2133 19.9593 10.8267 19.8988 10.4642L22.3518 8.555C22.5693 8.38583 22.6297 8.05958 22.4968 7.81792L20.1768 3.80625C20.0318 3.54042 19.7297 3.45583 19.4638 3.54042L16.5759 4.70042C15.9718 4.24125 15.3313 3.85458 14.6184 3.56458L14.1834 0.495416C14.1351 0.205417 13.8934 0 13.6034 0H8.96342C8.67342 0 8.44383 0.205417 8.3955 0.495416L7.9605 3.56458C7.24758 3.85458 6.59508 4.25333 6.003 4.70042L3.11508 3.54042C2.84925 3.44375 2.54717 3.54042 2.40217 3.80625L0.0942504 7.81792C-0.0507496 8.07167 -0.00241638 8.38583 0.23925 8.555L2.69217 10.4642C2.63175 10.8267 2.58342 11.2254 2.58342 11.6C2.58342 11.9746 2.60758 12.3733 2.668 12.7358L0.215084 14.645C-0.00241637 14.8142 -0.0628329 15.1404 0.0700838 15.3821L2.39008 19.3938C2.53508 19.6596 2.83717 19.7442 3.103 19.6596L5.99092 18.4996C6.59508 18.9587 7.2355 19.3454 7.94842 19.6354L8.38342 22.7046C8.44383 22.9946 8.67342 23.2 8.96342 23.2H13.6034C13.8934 23.2 14.1351 22.9946 14.1713 22.7046L14.6063 19.6354C15.3193 19.3454 15.9718 18.9587 16.5638 18.4996L19.4518 19.6596C19.7176 19.7563 20.0197 19.6596 20.1647 19.3938L22.4847 15.3821C22.6297 15.1163 22.5693 14.8142 22.3397 14.645L19.9109 12.7358ZM11.2834 15.95C8.89092 15.95 6.93342 13.9925 6.93342 11.6C6.93342 9.2075 8.89092 7.25 11.2834 7.25C13.6759 7.25 15.6334 9.2075 15.6334 11.6C15.6334 13.9925 13.6759 15.95 11.2834 15.95Z" fill="#494B7C"/>
</svg>
