<svg width="25" height="25" viewBox="0 0 25 25" fill="none" xmlns="http://www.w3.org/2000/svg">
<path d="M22.9173 18.7497V22.9163H18.7507V19.7913H15.6257V16.6663H12.5007L10.1465 14.3122C9.57357 14.4893 8.9694 14.583 8.33398 14.583C6.67638 14.583 5.08667 13.9245 3.91457 12.7524C2.74246 11.5803 2.08398 9.99061 2.08398 8.33301C2.08398 6.6754 2.74246 5.08569 3.91457 3.91359C5.08667 2.74149 6.67638 2.08301 8.33398 2.08301C9.99159 2.08301 11.5813 2.74149 12.7534 3.91359C13.9255 5.08569 14.584 6.6754 14.584 8.33301C14.584 8.96842 14.4902 9.57259 14.3132 10.1455L22.9173 18.7497ZM7.29232 5.20801C6.73978 5.20801 6.20988 5.4275 5.81918 5.8182C5.42848 6.2089 5.20898 6.73881 5.20898 7.29134C5.20898 7.84388 5.42848 8.37378 5.81918 8.76448C6.20988 9.15518 6.73978 9.37467 7.29232 9.37467C7.84485 9.37467 8.37476 9.15518 8.76546 8.76448C9.15616 8.37378 9.37565 7.84388 9.37565 7.29134C9.37565 6.73881 9.15616 6.2089 8.76546 5.8182C8.37476 5.4275 7.84485 5.20801 7.29232 5.20801Z" fill="#8F91C7"/>
</svg>
